<svg id="visual" viewBox="0 0 900 600" width="900" height="600" xmlns="http://www.w3.org/2000/svg" xmlns:xlink="http://www.w3.org/1999/xlink" version="1.1"><rect x="0" y="0" width="900" height="600" fill="#001220"></rect><defs><linearGradient id="grad1_0" x1="33.3%" y1="0%" x2="100%" y2="100%"><stop offset="20%" stop-color="#001220" stop-opacity="1"></stop><stop offset="80%" stop-color="#001220" stop-opacity="1"></stop></linearGradient></defs><defs><linearGradient id="grad2_0" x1="0%" y1="0%" x2="66.7%" y2="100%"><stop offset="20%" stop-color="#001220" stop-opacity="1"></stop><stop offset="80%" stop-color="#001220" stop-opacity="1"></stop></linearGradient></defs><g transform="translate(900, 0)"><path d="M0 324.5C-47.7 327 -95.4 329.5 -124.2 299.8C-152.9 270.1 -162.7 208.1 -166.9 166.9C-171 125.6 -169.6 105.1 -194.9 80.7C-220.3 56.4 -272.4 28.2 -324.5 0L0 0Z" fill="#6600FF"></path></g><g transform="translate(0, 600)"><path d="M0 -324.5C52 -329.4 103.9 -334.2 124.2 -299.8C144.4 -265.4 133 -191.7 159.8 -159.8C186.6 -127.9 251.7 -137.9 285.5 -118.2C319.3 -98.6 321.9 -49.3 324.5 0L0 0Z" fill="#6600FF"></path></g></svg>